<svg width="26" height="26" viewBox="0 0 26 26" fill="none" xmlns="http://www.w3.org/2000/svg">
<path fill-rule="evenodd" clip-rule="evenodd" d="M13 22.75V22.75C7.61475 22.75 3.25 18.3853 3.25 13V13C3.25 7.61475 7.61475 3.25 13 3.25V3.25C18.3853 3.25 22.75 7.61475 22.75 13V13C22.75 18.3853 18.3853 22.75 13 22.75Z" stroke="#323232" stroke-width="1.5" stroke-linecap="round" stroke-linejoin="round"/>
<path d="M14.7236 8.29727C15.6755 9.24917 15.6755 10.7925 14.7236 11.7444C13.7717 12.6963 12.2283 12.6963 11.2764 11.7444C10.3245 10.7925 10.3245 9.24917 11.2764 8.29727C12.2283 7.34537 13.7717 7.34537 14.7236 8.29727" stroke="#323232" stroke-width="1.5" stroke-linecap="round" stroke-linejoin="round"/>
<path d="M17.6811 17.9194C17.4417 16.4147 16.1482 15.262 14.5773 15.262H11.4227C9.85074 15.262 8.55833 16.4147 8.31891 17.9194" stroke="#323232" stroke-width="1.5" stroke-linecap="round" stroke-linejoin="round"/>
</svg>
